<?xml version="1.0" standalone="no"?><svg xmlns="http://www.w3.org/2000/svg" viewBox="0 0 1440 320"><path fill="#EEA12E" fill-opacity="1" d="M0,160L21.8,138.7C43.6,117,87,75,131,74.7C174.5,75,218,117,262,149.3C305.5,181,349,203,393,192C436.4,181,480,139,524,138.7C567.3,139,611,181,655,208C698.2,235,742,245,785,234.7C829.1,224,873,192,916,154.7C960,117,1004,75,1047,64C1090.9,53,1135,75,1178,101.3C1221.8,128,1265,160,1309,165.3C1352.7,171,1396,149,1418,138.7L1440,128L1440,320L1418.2,320C1396.4,320,1353,320,1309,320C1265.5,320,1222,320,1178,320C1134.5,320,1091,320,1047,320C1003.6,320,960,320,916,320C872.7,320,829,320,785,320C741.8,320,698,320,655,320C610.9,320,567,320,524,320C480,320,436,320,393,320C349.1,320,305,320,262,320C218.2,320,175,320,131,320C87.3,320,44,320,22,320L0,320Z"></path></svg>